<svg id="ImportedIcons" xmlns="http://www.w3.org/2000/svg" width="96" height="96" viewBox="0 0 96 96">
  <defs>
    <style>
      .cls-1 {
        fill: #b3b3b3;
      }
    </style>
  </defs>
    <path class="cls-1" d="M43.253,57.8a20.812,20.812,0,1,0-17.478-9.61L9.979,63.657A4.13849,4.13849,0,0,0,15.74,69.6L31.517,54.148A20.6209,20.6209,0,0,0,43.253,57.8ZM13.647,67.447a1.138,1.138,0,0,1-1.61877-1.59985q.02086-.02115.04278-.04114l15.514-15.19a20.9215,20.9215,0,0,0,1.584,1.632Zm11.858-30.39A17.76707,17.76707,0,0,1,43.253,19.309v-.004A17.747,17.747,0,1,1,25.505,37.057Z"/>
    <path class="cls-1" d="M52.001,31.456V37.5A1.50006,1.50006,0,0,0,53.5,39H58a1.5,1.5,0,0,0,0-3H55V31.456A3.46,3.46,0,0,0,51.544,28H42.456A3.46,3.46,0,0,0,39,31.456V36H32.456A3.46,3.46,0,0,0,29,39.456V45a1.5,1.5,0,0,0,3,0V39.456A.456.456,0,0,1,32.456,39H40.5A1.5,1.5,0,0,0,42,37.5V31.456A.456.456,0,0,1,42.456,31h9.089A.456.456,0,0,1,52.001,31.456Z"/>
    <path class="cls-1" d="M84.544,36H79V31.456A3.46,3.46,0,0,0,75.544,28H66.456a1.5,1.5,0,0,0,0,3h9.088a.456.456,0,0,1,.456.456V37.5A1.5,1.5,0,0,0,77.5,39h7.044a.456.456,0,0,1,.456.456V74.544a.456.456,0,0,1-.456.456H32.456A.456.456,0,0,1,32,74.544V60a1.5,1.5,0,0,0-3,0V74.544A3.46,3.46,0,0,0,32.456,78H84.544A3.46,3.46,0,0,0,88,74.544V39.456A3.46,3.46,0,0,0,84.544,36Z"/>
</svg>
