<svg id="ImportedIcons" xmlns="http://www.w3.org/2000/svg" width="96" height="96" viewBox="0 0 96 96">
  <defs>
    <style>
      .cls-1 {
        fill: #b3b3b3;
      }
    </style>
  </defs>
  <path class="cls-1" d="M60.395,39.522l-.094-.055c-.477-.281-.674-.4-1.159-.712a1.50029,1.50029,0,1,0-1.635,2.516h0c.531.345.748.473,1.271.781l.093.055c9.333,5.5,14.064,11.978,14.064,19.257v.105A9.118,9.118,0,0,1,67.93,69.45L55.143,76.122a15.27085,15.27085,0,0,0,.568-4.31c0-8.417-5.229-15.765-15.542-21.841C31.743,45,26.909,38.465,26.909,32.029c0-2.578.676-4.421,1.994-5.507l1.728-.9c2.477-.743,5.754,0,8.084,1.011,5.147,2.238,10.019,7.508,11.988,11.331a1.5,1.5,0,0,0,2.02028.64689L52.725,38.61,71.77,28.767a3.516,3.516,0,0,0,1.791-2.247,3.468,3.468,0,0,0-.475-2.792c-2.33-3.478-6.934-8.358-12.241-10.665-4.189-1.822-8.441-2.071-11.372-.667a1.50949,1.50949,0,0,0-.238.145,1.50753,1.50753,0,0,0-.177.071L29.51,22.821a8.182,8.182,0,0,0-1.877.9c-1.7,1.114-3.724,3.459-3.724,8.307,0,7.525,5.372,15.006,14.738,20.526,9.333,5.5,14.064,11.978,14.064,19.256,0,3.331-1.006,5.774-2.909,7.066-2.259,1.533-5.72,1.5-9.746-.1-5.072-2.015-11.71-8.767-14.5-13.566a.458.458,0,0,1-.042-.363.513.513,0,0,1,.257-.313L38.453,57.9a1.5,1.5,0,0,0-1.391-2.658L24.386,61.874a3.531,3.531,0,0,0-1.749,2.137,3.437,3.437,0,0,0,.329,2.7c3.1,5.334,10.256,12.574,15.983,14.849A18.50008,18.50008,0,0,0,45.706,83a10.42092,10.42092,0,0,0,5.015-1.2,1.43514,1.43514,0,0,0,.143-.054l18.453-9.627A12.109,12.109,0,0,0,75.936,61.5v-.134C75.936,52.947,70.707,45.6,60.395,39.522Zm-.745-23.71c4.712,2.049,8.841,6.443,10.945,9.584a.455.455,0,0,1,.062.375.51.51,0,0,1-.263.329L52.627,35.281c-2.543-4.106-7.5-9.134-12.716-11.4a20.71092,20.71092,0,0,0-3.677-1.187L50.447,15.27a1.49484,1.49484,0,0,0,.177-.117,1.46936,1.46936,0,0,0,.145-.052C53.311,13.882,57.023,14.67,59.65,15.812Z"/>
</svg>
