<svg id="ImportedIcons" xmlns="http://www.w3.org/2000/svg" width="96" height="96" viewBox="0 0 96 96">
  <defs>
    <style>
      .cls-1 {
        fill: #b3b3b3;
      }
    </style>
  </defs>
  <path class="cls-1" d="M60.425,52.252a1.5,1.5,0,0,0-1.5,1.5v11.5a1.5,1.5,0,0,0,1.5,1.5h6.762a1.5,1.5,0,1,0,0-3H61.925v-10A1.5,1.5,0,0,0,60.425,52.252Z"/>
  <path class="cls-1" d="M39.505,52.581a1.5,1.5,0,0,0-2.108.234L34.241,56.76l-3.156-3.945a1.50013,1.50013,0,1,0-2.343,1.874h0l3.578,4.472-3.578,4.472a1.50013,1.50013,0,1,0,2.343,1.874l3.156-3.945L37.4,65.508a1.50013,1.50013,0,0,0,2.343-1.874l-3.578-4.472,3.578-4.472a1.5,1.5,0,0,0-.23682-2.10806Z"/>
  <path class="cls-1" d="M54,66.748a1.5,1.5,0,0,0,1.5-1.5V53.855a1.5,1.5,0,0,0-2.787-.771L49.347,58.7,45.98,53.084a1.5,1.5,0,0,0-2.787.771V65.248a1.5,1.5,0,0,0,3,0V59.274l1.867,3.114a1.5,1.5,0,0,0,2.573,0L52.5,59.274v5.973a1.5,1.5,0,0,0,1.499,1.501Z"/>
  <path class="cls-1" d="M57,23.091A1.48613,1.48613,0,0,0,56.5,23H51.183a1.5,1.5,0,1,0,0,3H55V39.743a3.342,3.342,0,0,0,3.338,3.338H73.385a1.5,1.5,0,0,0,1.035-2.586L57.535,23.414c-.006-.006-.015-.008-.021-.013a1.492,1.492,0,0,0-.468-.294A.24688.24688,0,0,1,57,23.091Zm1,16.652V28L69.634,40.08h-11.3A.338.338,0,0,1,58,39.743Z"/>
  <path class="cls-1" d="M73.5,46A1.5,1.5,0,0,0,72,47.5V86.214a.787.787,0,0,1-.786.786H25.786A.787.787,0,0,1,25,86.214V26.786A.787.787,0,0,1,25.786,26H39a1.5,1.5,0,0,0,0-3H25.786A3.79,3.79,0,0,0,22,26.786V86.214A3.79,3.79,0,0,0,25.786,90H71.214A3.79,3.79,0,0,0,75,86.214V47.5A1.5,1.5,0,0,0,73.5,46Z"/>
  <path class="cls-1" d="M36.25,17.1a1.5,1.5,0,0,0,1.089-.468L44,9.542V37.5a1.5,1.5,0,0,0,3,0V9.606l6.661,7.028a1.5,1.5,0,0,0,2.19072-2.04957L55.839,14.571l-8.2-8.65A2.961,2.961,0,0,0,45.5,5h0a2.96,2.96,0,0,0-2.139.921l-8.2,8.652A1.5,1.5,0,0,0,36.25,17.1Z"/>
</svg>
